<?xml version="1.0" encoding="UTF-8" standalone="no"?>
<!-- Created with Inkscape (http://www.inkscape.org/) -->

<svg
   xmlns:dc="http://purl.org/dc/elements/1.1/"
   xmlns:cc="http://creativecommons.org/ns#"
   xmlns:rdf="http://www.w3.org/1999/02/22-rdf-syntax-ns#"
   xmlns:svg="http://www.w3.org/2000/svg"
   xmlns="http://www.w3.org/2000/svg"
   xmlns:sodipodi="http://sodipodi.sourceforge.net/DTD/sodipodi-0.dtd"
   xmlns:inkscape="http://www.inkscape.org/namespaces/inkscape"
   width="793.70081"
   height="1122.5197"
   viewBox="0 0 210 297"
   version="1.1"
   id="svg8"
   inkscape:version="0.92.2 5c3e80d, 2017-08-06"
   sodipodi:docname="logo.svg"
   inkscape:export-filename="/Users/ludusrusso/Projects/github/stampacchia/blog/themes/hyde/static/images/logo.png"
   inkscape:export-xdpi="286"
   inkscape:export-ydpi="286">
  <defs
     id="defs2">
    <style
       id="style837"
       type="text/css">
   
    .fil0 {fill:black}
   
  </style>
    <style
       id="style862"
       type="text/css">
   
    .fil0 {fill:black}
   
  </style>
  </defs>
  <sodipodi:namedview
     id="base"
     pagecolor="#ffffff"
     bordercolor="#666666"
     borderopacity="1.0"
     inkscape:pageopacity="0.0"
     inkscape:pageshadow="2"
     inkscape:zoom="1.4"
     inkscape:cx="-1212.7616"
     inkscape:cy="930.43697"
     inkscape:document-units="mm"
     inkscape:current-layer="layer1"
     showgrid="false"
     units="px"
     showborder="false"
     inkscape:window-width="1440"
     inkscape:window-height="855"
     inkscape:window-x="0"
     inkscape:window-y="23"
     inkscape:window-maximized="0"
     inkscape:pagecheckerboard="true" />
  <metadata
     id="metadata5">
    <rdf:RDF>
      <cc:Work
         rdf:about="">
        <dc:format>image/svg+xml</dc:format>
        <dc:type
           rdf:resource="http://purl.org/dc/dcmitype/StillImage" />
        <dc:title></dc:title>
      </cc:Work>
    </rdf:RDF>
  </metadata>
  <g
     inkscape:label="Livello 1"
     inkscape:groupmode="layer"
     id="layer1">
    <path
       style="fill:#ffffff;stroke-width:227.42071533;image-rendering:optimizeQuality;shape-rendering:geometricPrecision;text-rendering:geometricPrecision"
       d="M -1261.0137 8.578125 C -1264.3327 8.578125 -1266.9414 10.976393 -1266.9414 13.8125 L -1266.9414 81.662109 C -1266.9414 84.498218 -1264.3327 86.898437 -1261.0137 86.898438 L -1112.8438 86.898438 C -1109.5247 86.898438 -1107.1543 84.498218 -1107.1543 81.662109 L -1107.1543 13.8125 C -1107.1543 10.976393 -1109.5247 8.578125 -1112.8438 8.578125 L -1261.0137 8.578125 z M -1219.5273 35.628906 C -1209.5703 35.628906 -1199.6133 42.174895 -1199.6133 51.992188 C -1199.6133 55.046458 -1202.2208 57.445312 -1205.3027 57.445312 C -1208.3847 57.445312 -1210.9922 55.046458 -1210.9922 51.992188 C -1210.9922 48.06527 -1215.7342 46.101562 -1219.5273 46.101562 C -1223.3205 46.101562 -1228.0605 48.06527 -1228.0605 51.992188 C -1228.0605 55.046458 -1230.67 57.445312 -1233.752 57.445312 C -1237.0709 57.445312 -1239.6777 55.046458 -1239.6777 51.992188 C -1239.6777 42.174895 -1229.7214 35.628906 -1219.5273 35.628906 z M -1154.332 35.628906 C -1144.1379 35.628906 -1134.1797 42.174895 -1134.1797 51.992188 C -1134.1797 55.046458 -1136.7884 57.445312 -1140.1074 57.445312 C -1143.1893 57.445312 -1145.7969 55.046458 -1145.7969 51.992188 C -1145.7969 48.06527 -1150.5389 46.101562 -1154.332 46.101562 C -1158.1252 46.101562 -1162.8672 48.06527 -1162.8672 51.992188 C -1162.8672 55.046458 -1165.4747 57.445312 -1168.5566 57.445312 C -1171.6386 57.445312 -1174.2461 55.046458 -1174.2461 51.992188 C -1174.2461 42.174895 -1164.289 35.628906 -1154.332 35.628906 z M -1238.2559 104.78711 C -1255.7992 104.78711 -1266.4668 121.36615 -1266.4668 136.20117 C -1266.4668 138.81911 -1266.2305 141.21995 -1266.2305 143.83789 C -1291.5972 147.32848 -1308.9024 160.41737 -1321.9414 180.48828 C -1334.7433 177.65217 -1344.7002 185.72471 -1348.7305 196.63281 L -1337.8262 199.90625 C -1335.6925 193.79771 -1330.2399 188.34358 -1322.8906 191.17969 C -1315.5414 194.0158 -1314.8302 201.43248 -1317.9121 207.54102 L -1307.4805 211.9043 C -1302.9761 202.74149 -1303.4505 192.48704 -1311.748 185.50586 C -1300.8427 168.48922 -1286.6178 157.58298 -1265.2812 154.31055 C -1260.3027 190.30729 -1237.0708 235.68441 -1192.7383 239.61133 L -1192.7383 257.9375 C -1206.7256 260.33728 -1217.1562 271.89914 -1217.1562 285.20703 C -1217.1563 300.69653 -1203.6419 313.13086 -1187.0469 313.13086 C -1170.2147 313.13086 -1156.7031 300.69654 -1156.7031 285.20703 C -1156.7031 271.89914 -1167.1338 260.33728 -1181.1211 257.9375 L -1181.1211 239.61133 C -1136.7886 235.68441 -1113.5547 190.30729 -1108.5762 154.31055 C -1087.2397 157.58298 -1073.0166 168.48922 -1062.1113 185.50586 C -1070.4088 192.48704 -1070.8814 202.74149 -1066.377 211.9043 L -1055.9473 207.54102 C -1059.0292 201.43248 -1058.318 194.0158 -1050.9688 191.17969 C -1043.6195 188.34358 -1038.1669 193.79771 -1036.0332 199.90625 L -1025.127 196.63281 C -1029.1572 185.72471 -1039.1141 177.65217 -1051.916 180.48828 C -1064.955 160.19921 -1082.2622 147.32848 -1107.6289 143.83789 C -1107.6289 141.21995 -1107.3906 138.81911 -1107.3906 136.20117 C -1107.3906 121.36615 -1118.0594 104.78711 -1135.8398 104.78711 L -1238.2559 104.78711 z M -1187.8691 117.95703 C -1185.5038 117.95703 -1183.2522 118.71107 -1181.1914 119.9707 C -1180.1403 119.3615 -1178.9374 118.98047 -1177.6445 118.98047 C -1173.7159 118.98047 -1170.4883 122.20818 -1170.4883 126.13672 C -1170.4883 127.88711 -1171.1234 129.52071 -1172.1816 130.76953 C -1171.6415 131.84084 -1171.1299 132.9503 -1170.6465 134.125 C -1168.1172 133.78809 -1165.6931 133.63656 -1163.4258 133.71094 C -1156.5723 133.93578 -1150.8052 136.14813 -1148.0254 140.96289 C -1144.6078 146.88234 -1146.7795 154.60904 -1152.0508 162.11523 C -1152.4831 162.73085 -1152.9498 163.35252 -1153.4258 163.96875 C -1152.948 164.58733 -1152.4846 165.2045 -1152.0508 165.82227 C -1146.7795 173.32846 -1144.6078 181.05319 -1148.0254 186.97266 C -1148.3871 187.59901 -1148.8187 188.1702 -1149.2715 188.69922 C -1149.1097 189.29346 -1149.0156 189.90992 -1149.0156 190.55273 C -1149.0156 194.48128 -1152.2453 197.70898 -1156.1738 197.70898 C -1158.7969 197.70898 -1161.1248 196.28819 -1162.3711 194.16211 C -1164.9319 194.33011 -1167.7006 194.19485 -1170.6152 193.81055 C -1170.9142 194.53996 -1171.222 195.22967 -1171.543 195.91992 C -1175.4112 204.23672 -1181.0343 209.97852 -1187.8691 209.97852 C -1194.704 209.97852 -1200.329 204.23672 -1204.1973 195.91992 C -1204.5181 195.22967 -1204.8241 194.53996 -1205.123 193.81055 C -1207.4889 194.12455 -1209.7582 194.27339 -1211.8965 194.22656 C -1212.9559 196.86223 -1215.5458 198.73047 -1218.543 198.73047 C -1222.4715 198.73047 -1225.6992 195.50277 -1225.6992 191.57422 C -1225.6992 190.95349 -1225.5965 190.3609 -1225.4453 189.78516 C -1226.3282 188.96863 -1227.1056 188.02465 -1227.7129 186.97266 C -1231.1305 181.05319 -1228.9588 173.32846 -1223.6875 165.82227 C -1223.2537 165.2045 -1222.7903 164.58733 -1222.3125 163.96875 C -1222.7885 163.35252 -1223.2552 162.73085 -1223.6875 162.11523 C -1228.9588 154.60904 -1231.1305 146.88233 -1227.7129 140.96289 C -1224.7204 135.77967 -1218.3084 133.6321 -1210.7148 133.71094 C -1208.9335 133.72946 -1207.0535 133.86943 -1205.123 134.125 C -1204.8275 133.40513 -1204.5143 132.69918 -1204.1973 132.01758 C -1200.329 123.70079 -1194.704 117.95703 -1187.8691 117.95703 z M -1187.8691 122.04688 C -1192.328 122.04688 -1196.9574 126.14668 -1200.4902 133.74219 C -1200.6577 134.10257 -1200.807 134.48503 -1200.9688 134.85938 C -1196.7919 135.72958 -1192.3768 137.09733 -1187.8691 138.94922 C -1183.3661 137.0935 -1178.975 135.73349 -1174.8008 134.85938 C -1175.0756 134.2225 -1175.3396 133.60369 -1175.6309 133.00781 C -1176.273 133.19909 -1176.9434 133.29492 -1177.6445 133.29492 C -1181.5731 133.29492 -1184.8027 130.06527 -1184.8027 126.13672 C -1184.8027 125.01931 -1184.5307 123.98504 -1184.0664 123.03906 C -1185.3265 122.39736 -1186.586 122.04688 -1187.8691 122.04688 z M -1177.6445 123.07031 C -1179.3628 123.07031 -1180.7129 124.41849 -1180.7129 126.13672 C -1180.7129 127.85496 -1179.3628 129.20508 -1177.6445 129.20508 C -1175.9263 129.20508 -1174.5781 127.85496 -1174.5781 126.13672 C -1174.5781 124.41849 -1175.9263 123.07031 -1177.6445 123.07031 z M -1164.8887 137.78711 C -1166.2485 137.80554 -1167.6838 137.91379 -1169.1777 138.08789 C -1167.8467 142.14675 -1166.8201 146.63938 -1166.1738 151.47461 C -1162.3254 154.4508 -1158.949 157.59776 -1156.1094 160.77344 C -1155.8573 160.43513 -1155.6111 160.08622 -1155.375 159.75 C -1150.5608 152.89461 -1149.3118 146.86897 -1151.541 143.00781 C -1153.3493 139.87584 -1157.4949 137.99958 -1163.5547 137.80078 C -1163.9905 137.78649 -1164.4354 137.78097 -1164.8887 137.78711 z M -1210.7793 137.80078 C -1217.5838 137.73014 -1222.2488 139.63301 -1224.1973 143.00781 C -1226.4265 146.86897 -1225.1775 152.89461 -1220.3633 159.75 C -1220.1271 160.08623 -1219.8811 160.43515 -1219.6289 160.77344 C -1216.7893 157.59776 -1213.4129 154.4508 -1209.5645 151.47461 C -1208.9194 146.64484 -1207.8872 142.14191 -1206.5605 138.08789 C -1208.0282 137.91747 -1209.4422 137.81465 -1210.7793 137.80078 z M -1173.2988 138.72656 C -1176.2421 139.31345 -1179.3509 140.21215 -1182.5645 141.3457 C -1180.5896 142.31015 -1178.6005 143.33683 -1176.623 144.47852 C -1174.6442 145.62103 -1172.7265 146.82614 -1170.9023 148.05664 C -1171.5276 144.69967 -1172.3328 141.57462 -1173.2988 138.72656 z M -1202.4707 138.75781 C -1203.4287 141.59174 -1204.2176 144.72033 -1204.8359 148.05664 C -1203.0117 146.82614 -1201.0941 145.61907 -1199.1152 144.47656 C -1197.132 143.33152 -1195.154 142.28238 -1193.1738 141.31445 C -1196.3954 140.18008 -1199.5198 139.34305 -1202.4707 138.75781 z M -1187.9004 143.39062 C -1190.9361 144.70628 -1194.0017 146.25177 -1197.0703 148.02344 C -1200.1411 149.79637 -1203.0037 151.70883 -1205.666 153.67969 C -1206.0436 156.98011 -1206.2734 160.41043 -1206.2734 163.96875 C -1206.2734 167.52012 -1206.0422 170.96133 -1205.666 174.25586 C -1203.0037 176.22673 -1200.1411 178.10598 -1197.0703 179.87891 C -1193.9922 181.65602 -1190.9157 183.19686 -1187.8691 184.51367 C -1184.832 183.19584 -1181.7387 181.65183 -1178.668 179.87891 C -1175.5971 178.10598 -1172.7346 176.22673 -1170.0723 174.25586 C -1169.6962 170.96133 -1169.4648 167.52012 -1169.4648 163.96875 C -1169.4648 160.42527 -1169.6632 156.99937 -1170.041 153.71094 C -1172.7134 151.73045 -1175.5832 149.80444 -1178.668 148.02344 C -1181.7551 146.24107 -1184.845 144.71063 -1187.9004 143.39062 z M -1165.5996 157.22656 C -1165.4462 159.43294 -1165.375 161.67162 -1165.375 163.96875 C -1165.375 166.24912 -1165.4484 168.48673 -1165.5996 170.67773 C -1163.0165 168.47119 -1160.7059 166.21752 -1158.7285 163.96875 C -1160.7098 161.71548 -1163.0103 159.43722 -1165.5996 157.22656 z M -1210.1387 157.25781 C -1212.7218 159.46435 -1215.0323 161.71793 -1217.0098 163.9668 C -1215.0323 166.21557 -1212.7218 168.47119 -1210.1387 170.67773 C -1210.2899 168.48683 -1210.3633 166.24912 -1210.3633 163.96875 C -1210.3633 161.68767 -1210.2899 159.44931 -1210.1387 157.25781 z M -1219.6602 167.16211 C -1219.907 167.49369 -1220.1318 167.82466 -1220.3633 168.1543 C -1225.1775 175.00971 -1226.4265 181.06657 -1224.1973 184.92773 C -1223.9327 185.3859 -1223.6009 185.80407 -1223.2402 186.20508 C -1221.9793 185.10093 -1220.3356 184.41602 -1218.543 184.41602 C -1215.0951 184.41602 -1212.2051 186.9037 -1211.5449 190.16797 C -1209.9819 190.18649 -1208.3143 190.05379 -1206.5605 189.84766 C -1207.8854 185.79232 -1208.9211 181.29108 -1209.5645 176.46094 C -1213.4223 173.48367 -1216.8163 170.341 -1219.6602 167.16211 z M -1156.0781 167.16211 C -1158.922 170.341 -1162.316 173.48367 -1166.1738 176.46094 C -1166.8156 181.27953 -1167.8575 185.76864 -1169.1777 189.81641 C -1167.0826 190.06253 -1165.1153 190.17476 -1163.2988 190.10352 C -1163.0558 186.38886 -1159.9459 183.39453 -1156.1738 183.39453 C -1154.4551 183.39453 -1152.8757 184.03245 -1151.6367 185.05664 C -1151.6103 185.01371 -1151.5667 184.97173 -1151.541 184.92773 C -1149.3118 181.06657 -1150.5608 175.00971 -1155.375 168.1543 C -1155.6063 167.82465 -1155.8312 167.49369 -1156.0781 167.16211 z M -1204.8359 179.87891 C -1204.217 183.22436 -1203.431 186.36811 -1202.4707 189.20898 C -1199.5124 188.61729 -1196.3732 187.76552 -1193.1406 186.62109 C -1195.1305 185.64834 -1197.1215 184.57685 -1199.1152 183.42578 C -1201.0941 182.2833 -1203.0117 181.10758 -1204.8359 179.87891 z M -1170.9023 179.87891 C -1172.7265 181.10758 -1174.6442 182.2833 -1176.623 183.42578 C -1178.6031 184.56898 -1180.5869 185.62271 -1182.5645 186.58984 C -1179.3399 187.72537 -1176.2193 188.59034 -1173.2676 189.17773 C -1172.3115 186.34463 -1171.5191 183.21311 -1170.9023 179.87891 z M -1156.1738 187.48438 C -1157.8921 187.48438 -1159.2402 188.83256 -1159.2402 190.55078 C -1159.2402 192.269 -1157.8921 193.61914 -1156.1738 193.61914 C -1154.4556 193.61914 -1153.1055 192.269 -1153.1055 190.55078 C -1153.1055 188.83256 -1154.4556 187.48438 -1156.1738 187.48438 z M -1218.543 188.50586 C -1220.2612 188.50586 -1221.6094 189.85599 -1221.6094 191.57422 C -1221.6094 193.29244 -1220.2612 194.64062 -1218.543 194.64062 C -1216.8247 194.64062 -1215.4746 193.29244 -1215.4746 191.57422 C -1215.4746 189.85599 -1216.8247 188.50586 -1218.543 188.50586 z M -1187.9004 188.98633 C -1192.4007 190.83941 -1196.7963 192.23497 -1200.9688 193.10742 C -1200.8081 193.47948 -1200.6569 193.83509 -1200.4902 194.19336 C -1196.9574 201.78882 -1192.328 205.88867 -1187.8691 205.88867 C -1183.4104 205.88867 -1178.7808 201.78882 -1175.248 194.19336 C -1175.0814 193.8351 -1174.9302 193.47949 -1174.7695 193.10742 C -1178.9594 192.23302 -1183.3789 190.85332 -1187.9004 188.98633 z "
       transform="scale(0.26458333)"
       id="path992" />
  </g>
</svg>
