<?xml version="1.0" encoding="UTF-8" standalone="no"?>
<!-- Created with Inkscape (http://www.inkscape.org/) -->

<svg
   xmlns:dc="http://purl.org/dc/elements/1.1/"
   xmlns:cc="http://creativecommons.org/ns#"
   xmlns:rdf="http://www.w3.org/1999/02/22-rdf-syntax-ns#"
   xmlns:svg="http://www.w3.org/2000/svg"
   xmlns="http://www.w3.org/2000/svg"
   xmlns:sodipodi="http://sodipodi.sourceforge.net/DTD/sodipodi-0.dtd"
   xmlns:inkscape="http://www.inkscape.org/namespaces/inkscape"
   width="793.70081"
   height="1122.5197"
   viewBox="0 0 210 297"
   version="1.1"
   id="svg8"
   inkscape:version="0.92.2 5c3e80d, 2017-08-06"
   sodipodi:docname="icon.svg"
   inkscape:export-filename="/Users/ludusrusso/Projects/github/stampacchia/blog/themes/hyde/static/images/logo.png"
   inkscape:export-xdpi="286"
   inkscape:export-ydpi="286">
  <defs
     id="defs2">
    <style
       id="style837"
       type="text/css">
   
    .fil0 {fill:black}
   
  </style>
    <style
       id="style862"
       type="text/css">
   
    .fil0 {fill:black}
   
  </style>
  </defs>
  <sodipodi:namedview
     id="base"
     pagecolor="#ffffff"
     bordercolor="#666666"
     borderopacity="1.0"
     inkscape:pageopacity="0.0"
     inkscape:pageshadow="2"
     inkscape:zoom="0.49497475"
     inkscape:cx="-949.62714"
     inkscape:cy="1198.3621"
     inkscape:document-units="mm"
     inkscape:current-layer="layer1"
     showgrid="false"
     units="px"
     showborder="false"
     inkscape:window-width="1440"
     inkscape:window-height="855"
     inkscape:window-x="0"
     inkscape:window-y="23"
     inkscape:window-maximized="0"
     inkscape:pagecheckerboard="true" />
  <metadata
     id="metadata5">
    <rdf:RDF>
      <cc:Work
         rdf:about="">
        <dc:format>image/svg+xml</dc:format>
        <dc:type
           rdf:resource="http://purl.org/dc/dcmitype/StillImage" />
        <dc:title></dc:title>
      </cc:Work>
    </rdf:RDF>
  </metadata>
  <g
     inkscape:label="Livello 1"
     inkscape:groupmode="layer"
     id="layer1">
    <circle
       style="opacity:1;fill:#5b87e5;fill-opacity:1;fill-rule:nonzero;stroke:none;stroke-width:0.73364079;stroke-miterlimit:4;stroke-dasharray:none;stroke-opacity:1"
       id="path829"
       cx="-252.83698"
       cy="-1.2727991"
       r="89.802559" />
    <path
       style="fill:#ffffff;stroke-width:94.59411621;image-rendering:optimizeQuality;shape-rendering:geometricPrecision;text-rendering:geometricPrecision"
       d="m -285.0433,-61.875073 c -1.44285,0 -2.57692,0.954452 -2.57692,2.083153 v 27.002486 c 0,1.128702 1.13407,2.083931 2.57692,2.083931 h 64.41273 c 1.44289,0 2.47336,-0.955229 2.47336,-2.083931 V -59.79192 c 0,-1.128701 -1.03047,-2.083153 -2.47336,-2.083153 z m 18.03506,10.76555 c 4.32852,0 8.65705,2.605143 8.65705,6.512185 0,1.215525 -1.13353,2.170211 -2.4733,2.170211 -1.33983,0 -2.47336,-0.954686 -2.47336,-2.170211 0,-1.562817 -2.06145,-2.344324 -3.71039,-2.344324 -1.64899,0 -3.70958,0.781507 -3.70958,2.344324 0,1.215525 -1.13441,2.170211 -2.47422,2.170211 -1.4428,0 -2.57603,-0.954686 -2.57603,-2.170211 0,-3.907042 4.32823,-6.512185 8.75983,-6.512185 z m 28.34183,0 c 4.4316,0 8.76066,2.605143 8.76066,6.512185 0,1.215525 -1.13406,2.170211 -2.5769,2.170211 -1.33977,0 -2.47336,-0.954686 -2.47336,-2.170211 0,-1.562817 -2.06144,-2.344324 -3.7104,-2.344324 -1.64898,0 -3.71044,0.781507 -3.71044,2.344324 0,1.215525 -1.13354,2.170211 -2.47331,2.170211 -1.3398,0 -2.47334,-0.954686 -2.47334,-2.170211 0,-3.907042 4.32857,-6.512185 8.65709,-6.512185 z m -36.48358,27.523278 c -7.62645,0 -12.26389,6.59804 -12.26389,12.50202 0,1.04189 0.10269,1.9973599 0.10269,3.0392299 -11.02748,1.38917 -18.55043,6.59824 -24.21877,14.58596 -5.56527,-1.12869 -9.89376,2.08398 -11.64582,6.4251301 l 4.74035,1.30274 c 0.92756,-2.43104 3.29793,-4.6016401 6.49283,-3.47295 3.19485,1.1287 3.50404,4.08036 2.16427,6.51141 l 4.53484,1.73648 c 1.95816,-3.64658 1.75194,-7.72759 -1.85517,-10.5059401 4.74078,-6.7722 10.92466,-11.11262 20.20015,-12.41497 2.16425,14.3258301 12.26368,32.3848101 31.536,33.9476401 v 7.29336 c -6.08059,0.95506 -10.615,5.55639 -10.615,10.85261 -5e-5,6.16443 5.87497,11.113 13.08918,11.113 7.31733,0 13.19112,-4.94855 13.19112,-11.113 0,-5.29622 -4.53446,-9.89755 -10.61504,-10.85261 v -7.29336 c 19.27232,-1.56283 29.37261,-19.62181 31.53688,-33.9476401 9.27544,1.30235 15.45853,5.64277 20.19931,12.41497 -3.60711,2.7783501 -3.81256,6.8593601 -1.85439,10.5059401 l 4.53403,-1.73648 c -1.33977,-2.43105 -1.0306,-5.38271 2.16425,-6.51141 3.19491,-1.1286901 5.56527,1.04191 6.49285,3.47295 l 4.74115,-1.30274 c -1.75201,-4.3411501 -6.08049,-7.5538201 -11.64576,-6.4251301 -5.66834,-8.07456 -13.19217,-13.19679 -24.21963,-14.58596 0,-1.04187 0.10351,-1.9973399 0.10351,-3.0392299 0,-5.90398 -4.63797,-12.50202 -12.36751,-12.50202 z m 21.90427,5.24131 c 1.02825,0 2.00706,0.30008 2.90295,0.80138 0.45693,-0.24244 0.97986,-0.39409 1.54191,-0.39409 1.70785,0 3.11096,1.28455 3.11096,2.84802 0,0.69661 -0.2761,1.34674 -0.73612,1.84374 0.23479,0.42636 0.45719,0.8679 0.66734,1.33539 1.09954,-0.13402 2.15336,-0.19438 3.139,-0.16478 2.97937,0.0895 5.48646,0.96995 6.6949,2.8860999 1.48571,2.35579 0.54161,5.43084 -1.74994,8.41811997 -0.18793,0.24499 -0.39082,0.49241 -0.59774,0.73765 0.20771,0.24619 0.40917,0.4918 0.59774,0.73766 2.29155,2.98729003 3.23565,6.06153003 1.74994,8.41733003 -0.15724,0.24927 -0.34488,0.4766 -0.54171,0.68713 0.0703,0.2365001 0.11123,0.4818301 0.11123,0.7376601 0,1.56347 -1.40403,2.848 -3.11183,2.848 -1.14032,0 -2.15232,-0.56542 -2.69411,-1.41156 -1.11323,0.0669 -2.31684,0.0135 -3.58389,-0.13989 -0.12997,0.29029 -0.26379,0.56479 -0.40334,0.83949 -1.68159,3.30987 -4.12608,5.59498 -7.09731,5.59498 -2.97128,0 -5.41659,-2.28511 -7.09823,-5.59498 -0.13949,-0.2747 -0.27248,-0.5492 -0.40243,-0.83949 -1.0285,0.125 -2.01501,0.1842 -2.94458,0.16557 -0.46055,1.04892 -1.58644,1.79244 -2.88939,1.79244 -1.7078,0 -3.11096,-1.28455 -3.11096,-2.848 0,-0.24705 0.0447,-0.48288 0.11041,-0.71201 -0.38381,-0.3249601 -0.72177,-0.7006401 -0.98578,-1.1193101 -1.4857,-2.3558 -0.54161,-5.43006 1.74994,-8.41733003 0.18858,-0.24586 0.39003,-0.49149 0.59774,-0.73766 -0.20692,-0.24525 -0.4098,-0.49266 -0.59774,-0.73765 -2.29155,-2.98727997 -3.23564,-6.06232997 -1.74994,-8.41811997 1.30092,-2.0627899 4.08836,-2.9174699 7.38946,-2.8860999 0.77437,0.008 1.59164,0.063 2.43087,0.16478 0.12849,-0.28649 0.26461,-0.56744 0.40243,-0.8387 1.68164,-3.30987 4.12695,-5.59576 7.09823,-5.59576 z m 0,1.62765 c -1.93838,0 -3.9509,1.63162 -5.48669,4.65445 -0.0728,0.1435 -0.13768,0.29563 -0.20804,0.44462 1.81578,0.34632 3.73512,0.89064 5.69473,1.6276499 1.95755,-0.7385299 3.86646,-1.2797899 5.68107,-1.6276499 -0.11945,-0.25347 -0.23423,-0.49974 -0.36086,-0.73689 -0.27914,0.0761 -0.57056,0.11432 -0.87535,0.11432 -1.70786,0 -3.11183,-1.28532 -3.11183,-2.84879 0,-0.44471 0.1183,-0.85632 0.32008,-1.2328 -0.54779,-0.25539 -1.09533,-0.39487 -1.65311,-0.39487 z m 4.44486,0.40731 c -0.74699,0 -1.33391,0.53653 -1.33391,1.22035 0,0.68381 0.58692,1.22112 1.33391,1.22112 0.74693,0 1.33302,-0.53731 1.33302,-1.22112 0,-0.68382 -0.58609,-1.22035 -1.33302,-1.22035 z m 5.54523,5.85692 c -0.59114,0.008 -1.2151,0.0504 -1.86453,0.11974 0.57861,1.6153099 1.0249,3.4032799 1.30586,5.3275799 1.67298,1.18445 3.14078,2.43686 4.37521,3.70071 0.10959,-0.13462 0.21664,-0.2735 0.31926,-0.40731 2.09285,-2.72827 2.63582,-5.12634 1.66674,-6.66297 -0.78612,-1.24646 -2.58831,-1.9931699 -5.22263,-2.0722799 -0.18944,-0.006 -0.38286,-0.008 -0.57991,-0.006 z m -19.94967,0.006 c -2.95807,-0.0281 -4.98605,0.7291699 -5.8331,2.0722699 -0.96909,1.53665 -0.42611,3.9347 1.66672,6.66297 0.10269,0.13387 0.20963,0.27268 0.31926,0.40732 1.23443,-1.26384 2.70223,-2.51627 4.37523,-3.70072 0.28043,-1.92212 0.72915,-3.71418 1.30589,-5.3275799 -0.63803,-0.0678 -1.25274,-0.10875 -1.834,-0.11432 z m 16.29361,0.36843 c -1.27952,0.2335699 -2.63099,0.5912299 -4.028,1.0423499 0.85852,0.38383 1.72322,0.79242 2.5829,1.24679 0.86023,0.45469 1.69389,0.9343 2.48691,1.42401 -0.27183,-1.33599 -0.62188,-2.57969 -1.04181,-3.7131499 z m -12.68167,0.012 c -0.41646,1.1278399 -0.75942,2.3729499 -1.02822,3.7007199 0.79303,-0.48971 1.62665,-0.97009 2.48693,-1.42479 0.86214,-0.4557 1.72201,-0.87324 2.58285,-1.25844 -1.4005,-0.45146 -2.75874,-0.78457 -4.04156,-1.0174899 z m 6.33403,1.8437599 c -1.31969,0.5236 -2.65238,1.13866 -3.98637,1.84374 -1.33494,0.70558 -2.57938,1.4667 -3.73674,2.25105 -0.16414,1.31349 -0.26404,2.67867 -0.26404,4.09479997 0,1.41335003 0.10056,2.78288003 0.26404,4.09401003 1.15736,0.78436 2.4018,1.53226 3.73674,2.23784 1.33813,0.70724 2.67555,1.32046 3.99998,1.84452 1.32028,-0.52447 2.66502,-1.13895 3.99991,-1.84452 1.33499,-0.70558 2.57938,-1.45348 3.73674,-2.23784 0.16348,-1.31113 0.2641,-2.68066 0.2641,-4.09401003 0,-1.41021997 -0.0863,-2.77364997 -0.25048,-4.08235997 -1.16176,-0.78818 -2.40933,-1.55469 -3.75036,-2.26349 -1.34202,-0.70934 -2.68528,-1.31841 -4.01352,-1.84374 z m 9.69466,5.50637 c 0.0667,0.87808 0.0976,1.76900997 0.0976,2.68321997 0,0.90752 -0.0319,1.79804003 -0.0976,2.67001003 1.12292,-0.87815 2.12739,-1.77506003 2.987,-2.67001003 -0.8613,-0.89675 -1.86139,-1.80343997 -2.987,-2.68321997 z m -19.36215,0.012 c -1.12292,0.87814 -2.12735,1.77500997 -2.98702,2.66999997 0.85967,0.89496 1.8641,1.79265003 2.98702,2.67079003 -0.0657,-0.87192 -0.0976,-1.76247003 -0.0976,-2.67000003 0,-0.90783 0.0319,-1.79862997 0.0976,-2.67078997 z m -4.13921,3.94166 c -0.10729,0.13192 -0.20502,0.26368 -0.30565,0.39488 -2.09283,2.72827 -2.63581,5.13876 -1.66672,6.6754 0.11501,0.18235 0.25927,0.34877 0.41607,0.50836 0.54815,-0.43943 1.26269,-0.712 2.04197,-0.712 1.49889,0 2.75524,0.99003 3.04225,2.2891401 0.67946,0.008 1.4044,-0.0454 2.16681,-0.1274 -0.57595,-1.6139401 -1.0262,-3.4053201 -1.30589,-5.3276001 -1.67707,-1.18487 -3.15253,-2.43558 -4.38884,-3.7007 z m 27.64056,0 c -1.23631,1.26512 -2.71176,2.51583 -4.38883,3.7007 -0.27901,1.91769 -0.73195,3.70425 -1.30586,5.3151601 0.91079,0.0979 1.76601,0.1426 2.55569,0.11432 0.10565,-1.4783501 1.45758,-2.6700201 3.0974,-2.6700201 0.74714,0 1.43375,0.25387 1.97238,0.66148 0.0115,-0.0171 0.0304,-0.0338 0.0416,-0.0513 0.96908,-1.53665 0.4261,-3.94712 -1.66674,-6.67541 -0.10056,-0.13117 -0.19832,-0.2629 -0.30564,-0.39487 z m -21.19611,5.06098 c 0.26907,1.3314 0.61075,2.58255 1.02822,3.7131301 1.28603,-0.2354701 2.65071,-0.5744501 4.056,-1.0299101 -0.86506,-0.38712 -1.73058,-0.81355 -2.59729,-1.27166 -0.86028,-0.45468 -1.6939,-0.92258 -2.48693,-1.41156 z m 14.7517,0 c -0.79302,0.48898 -1.62668,0.95688 -2.48691,1.41156 -0.8608,0.45498 -1.7232,0.87434 -2.5829,1.25922 1.40179,0.45191 2.75839,0.79615 4.04156,1.02991 0.41564,-1.1275 0.7601,-2.37376 1.02825,-3.70069 z m 6.40281,3.02679 c -0.74699,0 -1.33303,0.53654 -1.33303,1.2203501 0,0.68381 0.58604,1.22114 1.33303,1.22114 0.74693,0 1.33386,-0.53733 1.33386,-1.22114 0,-0.6838101 -0.58693,-1.2203501 -1.33386,-1.2203501 z m -27.11329,0.40652 c -0.74693,0 -1.33302,0.5373201 -1.33302,1.2211401 0,0.68381 0.58609,1.22034 1.33302,1.22034 0.747,0 1.33391,-0.53653 1.33391,-1.22034 0,-0.68382 -0.58691,-1.2211401 -1.33391,-1.2211401 z m 13.32103,0.19121 c -1.95639,0.7374901 -3.86725,1.2928901 -5.68112,1.6400901 0.0698,0.14801 0.13555,0.2896 0.20804,0.43219 1.53579,3.02281 3.54831,4.65445 5.48669,4.65445 1.93828,0 3.95088,-1.63164 5.48667,-4.65445 0.0725,-0.14259 0.13818,-0.2841 0.208,-0.43219 -1.82142,-0.34798 -3.74269,-0.89706 -5.70828,-1.6400901 z"
       id="path831"
       inkscape:connector-curvature="0" />
  </g>
</svg>
